<svg width="88" height="100" viewBox="0 0 88 100" fill="none" xmlns="http://www.w3.org/2000/svg">
<path d="M36.7256 59.8917C32.6823 58.7545 29.1263 56.6607 26.0216 53.7365C25.0469 54.0794 24.0541 54.4224 23.0433 54.7473C22.574 54.8917 22.1046 54.8375 21.6173 54.657C20.7509 54.3321 20.2274 53.7004 19.8483 52.9242C19.3249 51.8953 18.657 50.9567 18.1335 49.9278C17.6642 48.9711 16.9783 48.1408 16.5812 47.148C16.3826 46.6607 15.8592 46.3357 15.8592 45.722C15.3898 44.9639 15.8411 44.296 16.1119 43.6282C16.1841 43.4477 16.2743 43.213 16.4368 43.1408C17.0866 42.852 17.4115 42.2022 17.953 41.8051C18.2057 41.6245 18.4765 41.426 18.7653 41.2094C18.3501 39.1336 17.9891 37.0578 17.9891 34.9278C17.9891 32.8159 18.3682 30.7762 18.7653 28.7545C18.0613 28.1047 17.4115 27.4729 16.7256 26.8773C16.0216 26.2635 15.6065 25.5054 15.6967 24.7112C15.7509 24.278 15.8772 23.8087 16.0938 23.4477C16.7617 22.3827 17.3754 21.2635 18.0252 20.1805C18.5487 19.3141 19 18.4116 19.5776 17.5632C19.8844 17.13 20.0649 16.6245 20.3718 16.1733C20.9675 15.3249 22.1588 14.9097 23.1335 15.1986C24 15.4513 24.8122 15.8303 25.6967 15.9928C25.787 16.0108 25.8592 16.1372 25.9494 16.2274C29.0722 13.3213 32.6281 11.2455 36.7075 10.0361C36.87 9.54874 36.9061 9.02527 37.1046 8.51986C37.2491 8.14079 37.213 7.67148 37.2852 7.25632C37.4837 6.17329 38.1516 5.54152 39.1083 5.21661C39.4512 5.1083 39.7942 5 40.2093 5C42.7364 5.0361 45.2635 5.0361 47.7906 5C48.5126 5 49.1263 5.28881 49.7039 5.61372C50.2274 5.88448 50.5162 6.46209 50.6606 7.00361C50.9133 7.99639 51.0577 9.00722 51.2563 10.0542C55.3176 11.2094 58.8736 13.2852 61.9783 16.2094C62.953 15.8664 63.9458 15.5235 64.9566 15.1986C65.426 15.0542 65.8953 15.1083 66.3826 15.2888C67.2491 15.6137 67.7725 16.2455 68.1516 17.0217C68.675 18.0505 69.3429 18.9892 69.8664 20.0181C70.3357 20.9747 71.0216 21.8051 71.4187 22.7978C71.6173 23.2852 72.1408 23.6101 72.1408 24.2238C72.6101 24.982 72.1588 25.6498 71.888 26.3177C71.8158 26.4982 71.7256 26.7329 71.5631 26.8051C70.9133 27.0939 70.5884 27.7437 70.0469 28.1408C69.7942 28.3213 69.5234 28.5199 69.2346 28.7365C69.6498 30.8123 70.0108 32.8881 70.0108 35.018C70.0108 37.13 69.6859 39.1697 69.2346 41.1913C69.9386 41.8412 70.5884 42.4729 71.2743 43.0686C71.9783 43.6823 72.3935 44.4404 72.3032 45.2347C72.2491 45.6679 72.1408 46.1372 71.9061 46.4982C71.2563 47.5451 70.6426 48.6282 70.0108 49.6931C69.2166 51.0108 68.5667 52.4368 67.6462 53.6823C67.4837 54.3682 66.8339 54.4224 66.3646 54.6751C65.8592 54.9458 65.3537 54.8736 64.7942 54.7112C63.9639 54.4765 63.1696 54.0614 62.3032 53.9531C62.213 53.935 62.1408 53.8087 62.0505 53.7184C58.9278 56.6607 55.3899 58.7545 51.2563 59.9278C51.0577 60.9025 50.8772 61.9134 50.6606 62.9061C50.444 63.8809 49.7942 64.4946 48.8736 64.7834C48.5306 64.8917 48.1696 65 47.7725 65C45.2454 64.9639 42.7184 64.9639 40.1913 65C39.4693 65 38.8556 64.7112 38.2779 64.3863C37.7545 64.1155 37.4476 63.5379 37.3393 62.9964C37.1407 61.9314 36.9422 60.9386 36.7256 59.8917ZM37.8989 43.9892C38.2599 43.7906 38.675 43.6643 38.6931 43.231C38.7292 42.5812 38.8195 41.9134 38.675 41.2996C38.4223 40.2527 37.9711 39.2419 37.7003 38.1949C37.5198 37.5271 37.1227 36.8953 37.1407 36.1733C36.5631 34.7473 36.2021 33.2491 35.7148 31.8051C35.3176 30.6137 35.0288 29.3863 34.5956 28.213C34.361 27.5632 34.3068 26.8412 33.8736 26.2635C33.8375 26.2094 33.8195 26.1733 33.8195 26.1733C33.3321 25.8484 32.8267 25.9567 32.3935 25.9567C32.1408 26.1913 31.9241 26.3899 31.7256 26.5704C31.7075 27.148 31.2924 27.5993 31.3646 28.1588C30.7328 29.5668 30.462 31.083 29.9386 32.5271C29.6678 33.2671 29.5054 34.0253 29.2888 34.7834C29.0902 35.5415 28.657 36.2274 28.657 37.0397C27.9711 38.574 27.6281 40.2166 27.1227 41.8231C26.9963 42.2202 26.9241 42.5993 27.1769 42.9783C27.2491 43.0866 27.213 43.2491 27.213 43.231C27.5018 43.5379 27.7184 43.7545 27.8989 43.9711C28.2418 43.9711 28.6028 43.9711 28.9819 43.9711C29.2346 43.6462 29.4873 43.3394 29.722 43.0325C29.6678 42.0036 29.8844 41.3177 30.3537 40.2166C32.1227 40.2166 33.8917 40.2166 35.6606 40.2166C35.805 40.7942 35.8772 41.3538 36.0758 41.8773C36.166 42.0939 36.2563 42.3105 36.2202 42.5271C36.166 43.1949 36.3826 43.7184 37.1407 43.9711C37.3213 43.9892 37.592 43.9892 37.8989 43.9892ZM42.1227 43.9892C42.6101 43.9531 43.1696 44.0975 43.5667 43.7004C43.7111 43.5199 43.8375 43.3394 44.018 43.0866C44.018 41.2816 44.018 39.3863 44.018 37.491C45.3357 37.491 46.6353 37.4368 47.9169 37.509C48.6931 37.5451 49.3249 37.3105 49.9386 36.9314C50.2274 36.7509 50.4801 36.4801 50.7328 36.2274C51.4007 35.5776 51.7256 34.7834 51.7436 33.8448C51.7436 32.3646 51.7436 30.9025 51.7436 29.4224C51.7436 29.2058 51.6895 28.9711 51.6353 28.7545C51.4368 27.9783 51.0216 27.4007 50.462 26.8953C49.8122 26.2996 49.0541 25.9386 48.1516 25.9386C46.1299 25.9386 44.1263 25.9386 42.0866 25.9386C41.888 26.1552 41.6895 26.3718 41.4548 26.5884C41.4548 32.148 41.4548 37.7437 41.4548 43.3574C41.6895 43.556 41.9061 43.7726 42.1227 43.9892ZM55.1191 43.9892C56.3646 43.9892 57.6281 43.9892 58.8736 43.9892C59.0902 43.7726 59.3068 43.556 59.5234 43.3574C59.5234 43.0144 59.5234 42.6895 59.5234 42.3466C59.5234 42.3105 59.5234 42.2924 59.5234 42.2744C59.2527 41.769 58.8375 41.4621 58.296 41.4079C58.296 37.0939 58.296 32.7978 58.296 28.5921C58.6931 28.3935 59.0361 28.213 59.4332 27.9964C59.4873 27.5271 59.5234 27.0397 59.5595 26.6968C59.2707 26.3718 59.0722 26.1372 58.9097 25.9567C57.6101 25.9567 56.3465 25.9567 55.2274 25.9567C54.9205 26.2274 54.7039 26.426 54.4332 26.6787C54.4873 27.1119 54.5595 27.5993 54.6137 28.0144C55.0469 28.231 55.3898 28.4116 55.6967 28.574C55.6967 32.87 55.6967 37.1661 55.6967 41.426C55.5162 41.4621 55.3176 41.426 55.2454 41.5162C54.9927 41.769 54.5595 41.8412 54.4693 42.2563C54.4693 42.6173 54.4693 42.9783 54.4693 43.3394C54.6859 43.556 54.9025 43.7726 55.1191 43.9892Z" fill="#02F4BF"/>
<path d="M34.7038 37.4546C33.6388 37.4907 32.5197 37.5088 31.4006 37.5449C31.3645 37.5449 31.3103 37.6171 31.202 37.7073C31.2201 36.5882 31.8518 35.6857 31.924 34.6568C32.4656 33.7543 32.5197 32.6893 32.8807 31.6785C32.989 31.7868 33.1515 31.8951 33.1515 31.9853C33.1695 32.7615 33.6208 33.4294 33.7652 34.1694C33.8735 34.6749 34.1623 35.1622 34.2345 35.6676C34.3067 36.3175 34.7399 36.8048 34.7038 37.4546Z" fill="#02F4BF"/>
<path d="M49.2348 33.9534C49.1085 34.1519 49.0002 34.3505 48.8557 34.531C48.603 34.8198 48.2781 34.9823 47.863 34.9642C46.5994 34.9462 45.3359 34.9642 44.0363 34.9642C44.0363 32.8162 44.0363 30.6682 44.0363 28.466C45.3539 28.466 46.7077 28.448 48.0435 28.466C48.6752 28.4841 49.2168 29.1339 49.2348 29.8198C49.2348 30.957 49.2348 32.0942 49.2348 33.2314C49.2348 33.4841 49.2348 33.7187 49.2348 33.9534Z" fill="#02F4BF"/>
<path d="M5.99316 89.2188H4.12109V94H1.65137V81.2031H5.94043C6.64941 81.2031 7.29102 81.2881 7.86523 81.458C8.43945 81.6221 8.93164 81.8652 9.3418 82.1875C9.74609 82.5098 10.0566 82.9111 10.2734 83.3916C10.4961 83.8721 10.6074 84.4287 10.6074 85.0615C10.6074 85.5186 10.5518 85.9316 10.4404 86.3008C10.335 86.6641 10.1826 86.9893 9.9834 87.2764C9.77832 87.5693 9.53223 87.8242 9.24512 88.041C8.96387 88.2578 8.64746 88.4453 8.2959 88.6035L11.0469 93.8857V94H8.40137L5.99316 89.2188ZM4.12109 87.2148H5.94922C6.33008 87.2148 6.66406 87.1621 6.95117 87.0566C7.24414 86.9453 7.48145 86.7871 7.66309 86.582C7.81543 86.418 7.92969 86.2217 8.00586 85.9932C8.08789 85.7646 8.12891 85.5098 8.12891 85.2285C8.12891 84.8887 8.07617 84.5898 7.9707 84.332C7.87109 84.0684 7.71875 83.8516 7.51367 83.6816C7.33203 83.5293 7.10938 83.4121 6.8457 83.3301C6.58203 83.248 6.28027 83.207 5.94043 83.207H4.12109V87.2148ZM20.3369 88.3926H15.0811V92.0049H21.2246V94H12.6025V81.2031H21.1982V83.2158H15.0811V86.4414H20.3369V88.3926ZM29.917 90.6602C29.917 90.4316 29.876 90.2178 29.7939 90.0186C29.7178 89.8193 29.5859 89.6318 29.3984 89.4561C29.2051 89.2861 28.9531 89.1309 28.6426 88.9902C28.3379 88.8438 27.957 88.709 27.5 88.5859C26.791 88.3926 26.167 88.1582 25.6279 87.8828C25.0947 87.6074 24.6582 87.3057 24.3184 86.9775C23.9785 86.6494 23.7207 86.2861 23.5449 85.8877C23.375 85.4893 23.29 85.0557 23.29 84.5869C23.29 84.0479 23.4043 83.5586 23.6328 83.1191C23.8613 82.6797 24.1777 82.3047 24.582 81.9941C24.9863 81.6836 25.4639 81.4463 26.0146 81.2822C26.5654 81.1123 27.1631 81.0273 27.8076 81.0273C28.4756 81.0273 29.085 81.124 29.6357 81.3174C30.1924 81.5107 30.6699 81.7803 31.0684 82.126C31.4668 82.4775 31.7773 82.8936 32 83.374C32.2227 83.8545 32.334 84.3818 32.334 84.9561H29.9258C29.9141 84.6689 29.8613 84.4053 29.7676 84.165C29.6797 83.9248 29.5479 83.7168 29.3721 83.541C29.1904 83.3711 28.9648 83.2393 28.6953 83.1455C28.4316 83.0459 28.1211 82.9961 27.7637 82.9961C27.4355 82.9961 27.1426 83.0371 26.8848 83.1191C26.6328 83.1953 26.4189 83.3037 26.2432 83.4443C26.0674 83.5908 25.9326 83.7637 25.8389 83.9629C25.751 84.1562 25.707 84.3672 25.707 84.5957C25.707 84.8359 25.7656 85.0527 25.8828 85.2461C26.0059 85.4395 26.1816 85.6123 26.4102 85.7646C26.6387 85.9229 26.9141 86.0664 27.2363 86.1953C27.5645 86.3242 27.9336 86.4443 28.3438 86.5557C28.7832 86.6787 29.2021 86.8281 29.6006 87.0039C29.999 87.1797 30.3652 87.3818 30.6992 87.6104C31.2031 87.9854 31.6045 88.4219 31.9033 88.9199C32.2021 89.418 32.3516 89.9922 32.3516 90.6426C32.3516 91.2051 32.2373 91.7061 32.0088 92.1455C31.7861 92.5791 31.4756 92.9453 31.0771 93.2441C30.6787 93.5488 30.2041 93.7803 29.6533 93.9385C29.1025 94.0908 28.502 94.167 27.8516 94.167C27.2129 94.167 26.5801 94.0732 25.9531 93.8857C25.332 93.6924 24.79 93.4111 24.3271 93.042C23.8877 92.6787 23.5391 92.251 23.2812 91.7588C23.0293 91.2666 22.9033 90.6895 22.9033 90.0273H25.3291C25.3408 90.4141 25.4082 90.7451 25.5312 91.0205C25.6543 91.2959 25.8271 91.5215 26.0498 91.6973C26.2666 91.873 26.5273 92.002 26.832 92.084C27.1426 92.166 27.4824 92.207 27.8516 92.207C28.1797 92.207 28.4697 92.1689 28.7217 92.0928C28.9795 92.0166 29.1963 91.9111 29.3721 91.7764C29.5479 91.6416 29.6826 91.4805 29.7764 91.293C29.8701 91.0996 29.917 90.8887 29.917 90.6602ZM43.4873 83.2158H39.541V94H37.0625V83.2158H33.1689V81.2031H43.4873V83.2158ZM53.542 89.3418H46.2207V87.3643H53.542V89.3418ZM61.9971 91.3281H58.1562L57.4004 94H54.7988L58.9912 81.2031H61.2324L65.3457 94H62.7441L61.9971 91.3281ZM58.7627 89.2275H61.417L60.1074 84.5166L58.7627 89.2275ZM69.1426 89.3066V94H66.6729V81.2031H71.0498C71.7471 81.2031 72.377 81.3057 72.9395 81.5107C73.502 81.71 73.9824 81.9883 74.3809 82.3457C74.7734 82.709 75.0752 83.1426 75.2861 83.6465C75.5029 84.1504 75.6113 84.71 75.6113 85.3252C75.6113 85.8994 75.5029 86.4297 75.2861 86.916C75.0752 87.4023 74.7734 87.8213 74.3809 88.1729C73.9824 88.5303 73.502 88.8086 72.9395 89.0078C72.377 89.207 71.7471 89.3066 71.0498 89.3066H69.1426ZM69.1426 87.3027H71.0498C71.4014 87.3027 71.7061 87.25 71.9639 87.1445C72.2217 87.0391 72.4385 86.8955 72.6143 86.7139C72.7842 86.5322 72.9102 86.3242 72.9922 86.0898C73.0801 85.8496 73.124 85.6006 73.124 85.3428C73.124 85.0439 73.0801 84.7656 72.9922 84.5078C72.9102 84.25 72.7842 84.0244 72.6143 83.8311C72.4385 83.6377 72.2217 83.4854 71.9639 83.374C71.7061 83.2627 71.4014 83.207 71.0498 83.207H69.1426V87.3027ZM77.8701 81.2031H85.2705V83.1982H82.7744V92.0137H85.2705V94H77.8701V92.0137H80.3047V83.1982H77.8701V81.2031Z" fill="#02F4BF"/>
</svg>
