<svg width="99" height="121" viewBox="0 0 99 121" fill="none" xmlns="http://www.w3.org/2000/svg">
<path d="M24.4949 13.5019L75.2634 13.5019C76.6422 13.5021 77.7602 14.6227 77.7602 16.0051L77.7602 65.9951C77.7602 67.3774 76.6422 68.4981 75.2634 68.4982L24.4949 68.4982C23.116 68.4982 21.9982 67.3775 21.9981 65.9951L21.9981 16.0051C21.9981 14.6226 23.116 13.5019 24.4949 13.5019Z" fill="#E15544" stroke="#E15544" stroke-width="3"/>
<path d="M47.1805 49.6883C47.1805 48.6088 47.2039 47.6936 47.2507 46.9426C47.3131 46.1917 47.4458 45.5111 47.6486 44.901C47.8515 44.3065 48.1558 43.7589 48.5615 43.2583C48.9673 42.742 49.5369 42.1945 50.2703 41.6156C50.8009 41.1306 51.3314 40.6222 51.862 40.0902C52.3926 39.5427 52.8764 38.9794 53.3133 38.4006C53.7346 37.8374 54.078 37.2585 54.3432 36.664C54.6085 36.0695 54.7412 35.475 54.7412 34.8805C54.7412 34.1609 54.6397 33.5429 54.4369 33.0266C54.234 32.4947 53.9453 32.0566 53.5708 31.7124C53.1807 31.3995 52.7047 31.1649 52.1429 31.0084C51.5967 30.852 50.9647 30.7738 50.2469 30.7738C49.6851 30.7738 49.1389 30.852 48.6083 31.0084C48.0778 31.1492 47.6096 31.3839 47.2039 31.7124C46.7825 32.041 46.4392 32.4634 46.1739 32.9797C45.9243 33.4959 45.7916 34.1139 45.776 34.8336L39.2452 34.8336C39.2608 33.2378 39.5573 31.8532 40.1347 30.6799C40.7121 29.4909 41.4924 28.5053 42.4755 27.723C43.4586 26.9408 44.6134 26.3619 45.9399 25.9864C47.2663 25.5953 48.702 25.3998 50.2469 25.3998C51.9791 25.3998 53.5318 25.5953 54.905 25.9864C56.2783 26.3776 57.4409 26.9564 58.3928 27.723C59.3291 28.5053 60.0469 29.4674 60.5463 30.6095C61.0457 31.7516 61.2953 33.0735 61.2953 34.5754C61.2953 35.6862 61.1081 36.7031 60.7336 37.6262C60.359 38.5336 59.8753 39.3784 59.2823 40.1606C58.6893 40.9585 58.0105 41.7173 57.2458 42.4369C56.4968 43.141 55.7399 43.8293 54.9753 44.5021C54.5071 44.9714 54.1404 45.386 53.8751 45.7458C53.6098 46.1057 53.4225 46.4733 53.3133 46.8488C53.1885 47.2243 53.1104 47.6388 53.0792 48.0925C53.048 48.5306 53.0324 49.0625 53.0324 49.6883L47.1805 49.6883ZM46.2208 56.7989C46.2208 55.7663 46.5563 54.9058 47.2273 54.2175C47.8983 53.5135 48.8268 53.1615 50.0128 53.1615C51.1676 53.1615 52.0883 53.5135 52.7749 54.2175C53.4772 54.9058 53.8283 55.7663 53.8283 56.7989C53.8283 57.8001 53.4772 58.645 52.7749 59.3333C52.0883 60.0061 51.1676 60.3424 50.0128 60.3424C48.8268 60.3424 47.8983 60.0061 47.2273 59.3333C46.5563 58.645 46.2208 57.8001 46.2208 56.7989Z" fill="#02F4BF"/>
<path d="M10.8896 90.9922C10.8486 91.6367 10.708 92.2168 10.4678 92.7324C10.2334 93.248 9.91699 93.6875 9.51855 94.0508C9.12012 94.4141 8.64551 94.6953 8.09473 94.8945C7.54395 95.0879 6.93457 95.1846 6.2666 95.1846C5.73926 95.1846 5.25 95.1172 4.79883 94.9824C4.35352 94.8418 3.95215 94.6426 3.59473 94.3848C3.2666 94.1445 2.97363 93.8545 2.71582 93.5146C2.46387 93.1748 2.25 92.7998 2.07422 92.3896C1.9043 91.9795 1.77246 91.5283 1.67871 91.0361C1.59082 90.5439 1.54688 90.0225 1.54688 89.4717V87.749C1.54688 87.2334 1.58789 86.7441 1.66992 86.2812C1.75195 85.8125 1.875 85.3789 2.03906 84.9805C2.22656 84.4941 2.47266 84.0605 2.77734 83.6797C3.08203 83.2988 3.42773 82.9766 3.81445 82.7129C4.16016 82.4902 4.53809 82.3203 4.94824 82.2031C5.36426 82.0801 5.80957 82.0186 6.28418 82.0186C6.9873 82.0186 7.61133 82.1182 8.15625 82.3174C8.70703 82.5166 9.17578 82.8008 9.5625 83.1699C9.94922 83.5391 10.2539 83.9902 10.4766 84.5234C10.6992 85.0566 10.8398 85.6572 10.8984 86.3252H8.4375C8.41406 85.9443 8.35547 85.6104 8.26172 85.3232C8.17383 85.0361 8.04492 84.7959 7.875 84.6025C7.69922 84.415 7.47949 84.2744 7.21582 84.1807C6.95801 84.0811 6.64746 84.0312 6.28418 84.0312C6.09082 84.0312 5.90918 84.0518 5.73926 84.0928C5.5752 84.1338 5.42285 84.1953 5.28223 84.2773C5.04199 84.418 4.83691 84.6201 4.66699 84.8838C4.50293 85.1416 4.37109 85.4434 4.27148 85.7891C4.19531 86.0586 4.13965 86.3574 4.10449 86.6855C4.06934 87.0078 4.05176 87.3564 4.05176 87.7314V89.4717C4.05176 89.9814 4.07812 90.4385 4.13086 90.8428C4.18945 91.2412 4.27734 91.5898 4.39453 91.8887C4.47656 92.0938 4.57324 92.2754 4.68457 92.4336C4.80176 92.5918 4.93359 92.7236 5.08008 92.8291C5.23828 92.9463 5.41406 93.0342 5.60742 93.0928C5.80664 93.1455 6.02637 93.1719 6.2666 93.1719C6.58887 93.1719 6.87891 93.1309 7.13672 93.0488C7.39453 92.9668 7.61426 92.8379 7.7959 92.6621C7.97754 92.4863 8.12109 92.2607 8.22656 91.9854C8.33203 91.71 8.39648 91.3789 8.41992 90.9922H10.8896ZM15.3457 86.7998C15.4688 86.6182 15.6035 86.4512 15.75 86.2988C15.9023 86.1406 16.0605 86.0029 16.2246 85.8857C16.4766 85.7041 16.7549 85.5635 17.0596 85.4639C17.3643 85.3643 17.6865 85.3145 18.0264 85.3145C18.5244 85.3145 18.9814 85.3906 19.3975 85.543C19.8135 85.6895 20.1709 85.9209 20.4697 86.2373C20.7686 86.5537 21 86.9609 21.1641 87.459C21.334 87.9512 21.4189 88.5459 21.4189 89.2432V95H18.9756V89.2256C18.9756 88.8857 18.9316 88.5928 18.8438 88.3467C18.7617 88.1006 18.6416 87.9014 18.4834 87.749C18.3252 87.5967 18.1348 87.4854 17.9121 87.415C17.6895 87.3389 17.4375 87.3008 17.1562 87.3008C16.9395 87.3008 16.7373 87.3213 16.5498 87.3623C16.3623 87.4033 16.1924 87.4648 16.04 87.5469C15.8994 87.6172 15.7705 87.7021 15.6533 87.8018C15.542 87.9014 15.4395 88.0127 15.3457 88.1357V95H12.9023V81.5H15.3457V86.7998ZM29.6543 95C29.5957 94.8828 29.5459 94.748 29.5049 94.5957C29.4639 94.4434 29.4287 94.2822 29.3994 94.1123C29.2646 94.2588 29.1094 94.3965 28.9336 94.5254C28.7578 94.6543 28.5645 94.7656 28.3535 94.8594C28.1367 94.959 27.8994 95.0352 27.6416 95.0879C27.3838 95.1465 27.1055 95.1758 26.8066 95.1758C26.3203 95.1758 25.8721 95.1055 25.4619 94.9648C25.0576 94.8242 24.709 94.6279 24.416 94.376C24.123 94.124 23.8945 93.8252 23.7305 93.4795C23.5664 93.1279 23.4844 92.7471 23.4844 92.3369C23.4844 91.8096 23.5869 91.3438 23.792 90.9395C23.9971 90.5293 24.3047 90.1924 24.7148 89.9287C25.084 89.6885 25.5381 89.5068 26.0771 89.3838C26.6221 89.2549 27.2461 89.1904 27.9492 89.1904H29.3115V88.6279C29.3115 88.4053 29.2764 88.2061 29.2061 88.0303C29.1357 87.8486 29.0303 87.6934 28.8896 87.5645C28.7432 87.4297 28.5586 87.3271 28.3359 87.2568C28.1191 87.1807 27.8643 87.1426 27.5713 87.1426C27.3135 87.1426 27.0908 87.1748 26.9033 87.2393C26.7158 87.2979 26.5635 87.3828 26.4463 87.4941C26.3408 87.5938 26.2617 87.7139 26.209 87.8545C26.1621 87.9951 26.1387 88.1504 26.1387 88.3203H23.6953C23.6953 87.916 23.7832 87.5322 23.959 87.1689C24.1406 86.8057 24.4043 86.4863 24.75 86.2109C25.0898 85.9355 25.5059 85.7188 25.998 85.5605C26.4961 85.3965 27.0645 85.3145 27.7031 85.3145C28.2773 85.3145 28.8105 85.3848 29.3027 85.5254C29.8008 85.666 30.2314 85.874 30.5947 86.1494C30.958 86.4248 31.2422 86.7734 31.4473 87.1953C31.6523 87.6113 31.7549 88.0947 31.7549 88.6455V92.7236C31.7549 93.2334 31.7871 93.6553 31.8516 93.9893C31.916 94.3232 32.0098 94.6104 32.1328 94.8506V95H29.6543ZM27.3252 93.2861C27.5713 93.2861 27.7998 93.2568 28.0107 93.1982C28.2217 93.1396 28.4121 93.0635 28.582 92.9697C28.752 92.876 28.8984 92.7705 29.0215 92.6533C29.1445 92.5303 29.2412 92.4072 29.3115 92.2842V90.6494H28.0635C27.6826 90.6494 27.3574 90.6875 27.0879 90.7637C26.8184 90.834 26.5986 90.9336 26.4287 91.0625C26.2588 91.1973 26.1328 91.3584 26.0508 91.5459C25.9688 91.7275 25.9277 91.9268 25.9277 92.1436C25.9277 92.3135 25.957 92.4717 26.0156 92.6182C26.0801 92.7588 26.1709 92.8789 26.2881 92.9785C26.4053 93.0723 26.5488 93.1484 26.7188 93.207C26.8945 93.2598 27.0967 93.2861 27.3252 93.2861ZM35.0332 81.5H40.3506V93.0137H43.0752V95H35.0332V93.0137H37.8809V83.4951H35.0332V81.5ZM45.8438 81.5H51.1611V93.0137H53.8857V95H45.8438V93.0137H48.6914V83.4951H45.8438V81.5ZM60.7588 95.1758C60.0264 95.1758 59.3613 95.0557 58.7637 94.8154C58.166 94.5752 57.6533 94.2471 57.2256 93.8311C56.7979 93.4209 56.4668 92.9375 56.2324 92.3809C56.0039 91.8184 55.8896 91.2178 55.8896 90.5791V90.2275C55.8896 89.501 56.0039 88.8389 56.2324 88.2412C56.4609 87.6377 56.7803 87.1191 57.1904 86.6855C57.6006 86.252 58.0869 85.915 58.6494 85.6748C59.2119 85.4346 59.8242 85.3145 60.4863 85.3145C61.1719 85.3145 61.7812 85.4287 62.3145 85.6572C62.8535 85.8799 63.3105 86.1963 63.6855 86.6064C64.0547 87.0166 64.3359 87.5117 64.5293 88.0918C64.7227 88.666 64.8193 89.3018 64.8193 89.999V91.0361H58.3682V91.0625C58.4502 91.4434 58.5557 91.751 58.6846 91.9854C58.8135 92.2139 58.9863 92.4219 59.2031 92.6094C59.4258 92.8027 59.6807 92.9521 59.9678 93.0576C60.2549 93.1631 60.5684 93.2158 60.9082 93.2158C61.3887 93.2158 61.8545 93.125 62.3057 92.9434C62.7568 92.7617 63.123 92.4893 63.4043 92.126L64.626 93.4443C64.3154 93.8838 63.8232 94.2822 63.1494 94.6396C62.4756 94.9971 61.6787 95.1758 60.7588 95.1758ZM60.4688 87.292C60.1934 87.292 59.9414 87.3418 59.7129 87.4414C59.4844 87.5352 59.2852 87.6729 59.1152 87.8545C58.9395 88.0361 58.793 88.2529 58.6758 88.5049C58.5586 88.7568 58.4707 89.0381 58.4121 89.3486H62.4199V89.1553C62.4199 88.8975 62.373 88.6543 62.2793 88.4258C62.1855 88.1973 62.0566 87.998 61.8926 87.8281C61.7285 87.6641 61.5264 87.5352 61.2861 87.4414C61.0518 87.3418 60.7793 87.292 60.4688 87.292ZM66.9551 95V85.4902H69.1699L69.3193 86.8086C69.4424 86.6328 69.5771 86.4717 69.7236 86.3252C69.8701 86.1787 70.0254 86.0469 70.1895 85.9297C70.4707 85.7305 70.7783 85.5781 71.1123 85.4727C71.4463 85.3672 71.8008 85.3145 72.1758 85.3145C72.6562 85.3145 73.0957 85.3848 73.4941 85.5254C73.8926 85.666 74.2383 85.8887 74.5312 86.1934C74.8184 86.5039 75.041 86.9023 75.1992 87.3887C75.3633 87.8691 75.4453 88.4551 75.4453 89.1465V95H73.002V89.1816C73.002 88.8066 72.958 88.499 72.8701 88.2588C72.7881 88.0127 72.668 87.8193 72.5098 87.6787C72.3516 87.5381 72.1611 87.4414 71.9385 87.3887C71.7158 87.3301 71.4639 87.3008 71.1826 87.3008C70.9482 87.3008 70.7314 87.3271 70.5322 87.3799C70.3389 87.4326 70.166 87.5117 70.0137 87.6172C69.8906 87.6934 69.7793 87.7842 69.6797 87.8896C69.5801 87.9951 69.4893 88.1123 69.4072 88.2412V95H66.9551ZM77.5195 90.1748C77.5195 89.4541 77.6074 88.7949 77.7832 88.1973C77.9648 87.5996 78.2227 87.0869 78.5566 86.6592C78.8906 86.2314 79.2949 85.9004 79.7695 85.666C80.2441 85.4316 80.7803 85.3145 81.3779 85.3145C81.7002 85.3145 81.9932 85.3467 82.2568 85.4111C82.5264 85.4697 82.7695 85.5605 82.9863 85.6836C83.1504 85.7715 83.3027 85.877 83.4434 86C83.584 86.1172 83.7129 86.249 83.8301 86.3955L83.9268 85.4902H86.1504V94.6924C86.1504 95.3369 86.0391 95.9111 85.8164 96.415C85.5996 96.9189 85.2949 97.3438 84.9023 97.6895C84.5039 98.0352 84.0264 98.2959 83.4697 98.4717C82.9189 98.6533 82.3096 98.7441 81.6416 98.7441C81.3545 98.7441 81.0469 98.7148 80.7188 98.6562C80.3906 98.5977 80.0654 98.5068 79.7432 98.3838C79.4209 98.2607 79.1162 98.1025 78.8291 97.9092C78.542 97.7217 78.2959 97.4961 78.0908 97.2324L79.1895 95.7471C79.3477 95.9287 79.5176 96.0869 79.6992 96.2217C79.8809 96.3623 80.0713 96.4766 80.2705 96.5645C80.4639 96.6523 80.6631 96.7168 80.8682 96.7578C81.0791 96.8047 81.2959 96.8281 81.5186 96.8281C81.876 96.8281 82.1924 96.7783 82.4678 96.6787C82.749 96.5791 82.9834 96.4326 83.1709 96.2393C83.3408 96.0635 83.4697 95.8467 83.5576 95.5889C83.6514 95.3311 83.6982 95.041 83.6982 94.7188V94.1738C83.5811 94.3027 83.458 94.4199 83.3291 94.5254C83.2002 94.6309 83.0625 94.7246 82.916 94.8066C82.6992 94.9238 82.459 95.0146 82.1953 95.0791C81.9375 95.1436 81.6592 95.1758 81.3604 95.1758C80.7686 95.1758 80.2354 95.0557 79.7607 94.8154C79.292 94.5693 78.8906 94.2324 78.5566 93.8047C78.2227 93.377 77.9648 92.8701 77.7832 92.2842C77.6074 91.6924 77.5195 91.0508 77.5195 90.3594V90.1748ZM79.9717 90.3594C79.9717 90.7578 80.0098 91.1299 80.0859 91.4756C80.168 91.8154 80.291 92.1113 80.4551 92.3633C80.6191 92.6211 80.8271 92.8232 81.0791 92.9697C81.3311 93.1162 81.6299 93.1895 81.9756 93.1895C82.1865 93.1895 82.377 93.1689 82.5469 93.1279C82.7227 93.0869 82.8809 93.0283 83.0215 92.9521C83.168 92.8701 83.2969 92.7705 83.4082 92.6533C83.5195 92.5361 83.6162 92.4043 83.6982 92.2578V88.2324C83.6104 88.0684 83.5049 87.9248 83.3818 87.8018C83.2588 87.6787 83.1182 87.5791 82.96 87.5029C82.8252 87.4385 82.6758 87.3887 82.5117 87.3535C82.3535 87.3184 82.1807 87.3008 81.9932 87.3008C81.6475 87.3008 81.3486 87.377 81.0967 87.5293C80.8447 87.6758 80.6367 87.8779 80.4727 88.1357C80.3027 88.3994 80.1768 88.707 80.0947 89.0586C80.0127 89.4043 79.9717 89.7764 79.9717 90.1748V90.3594ZM93.1904 95.1758C92.458 95.1758 91.793 95.0557 91.1953 94.8154C90.5977 94.5752 90.085 94.2471 89.6572 93.8311C89.2295 93.4209 88.8984 92.9375 88.6641 92.3809C88.4355 91.8184 88.3213 91.2178 88.3213 90.5791V90.2275C88.3213 89.501 88.4355 88.8389 88.6641 88.2412C88.8926 87.6377 89.2119 87.1191 89.6221 86.6855C90.0322 86.252 90.5186 85.915 91.0811 85.6748C91.6436 85.4346 92.2559 85.3145 92.918 85.3145C93.6035 85.3145 94.2129 85.4287 94.7461 85.6572C95.2852 85.8799 95.7422 86.1963 96.1172 86.6064C96.4863 87.0166 96.7676 87.5117 96.9609 88.0918C97.1543 88.666 97.251 89.3018 97.251 89.999V91.0361H90.7998V91.0625C90.8818 91.4434 90.9873 91.751 91.1162 91.9854C91.2451 92.2139 91.418 92.4219 91.6348 92.6094C91.8574 92.8027 92.1123 92.9521 92.3994 93.0576C92.6865 93.1631 93 93.2158 93.3398 93.2158C93.8203 93.2158 94.2861 93.125 94.7373 92.9434C95.1885 92.7617 95.5547 92.4893 95.8359 92.126L97.0576 93.4443C96.7471 93.8838 96.2549 94.2822 95.5811 94.6396C94.9072 94.9971 94.1104 95.1758 93.1904 95.1758ZM92.9004 87.292C92.625 87.292 92.373 87.3418 92.1445 87.4414C91.916 87.5352 91.7168 87.6729 91.5469 87.8545C91.3711 88.0361 91.2246 88.2529 91.1074 88.5049C90.9902 88.7568 90.9023 89.0381 90.8438 89.3486H94.8516V89.1553C94.8516 88.8975 94.8047 88.6543 94.7109 88.4258C94.6172 88.1973 94.4883 87.998 94.3242 87.8281C94.1602 87.6641 93.958 87.5352 93.7178 87.4414C93.4834 87.3418 93.2109 87.292 92.9004 87.292ZM41.4492 110.49L41.5195 111.642C41.7012 111.231 41.9502 110.909 42.2666 110.675C42.5889 110.435 42.9785 110.314 43.4355 110.314C43.6582 110.314 43.8574 110.341 44.0332 110.394C44.209 110.446 44.3613 110.528 44.4902 110.64C44.5898 110.722 44.6748 110.821 44.7451 110.938C44.8213 111.05 44.8857 111.179 44.9385 111.325C45.0205 111.185 45.1113 111.059 45.2109 110.947C45.3164 110.83 45.4307 110.73 45.5537 110.648C45.7061 110.543 45.8789 110.461 46.0723 110.402C46.2656 110.344 46.4766 110.314 46.7051 110.314C46.9922 110.314 47.2588 110.367 47.5049 110.473C47.7568 110.578 47.9766 110.745 48.1641 110.974C48.3457 111.208 48.4863 111.51 48.5859 111.879C48.6914 112.242 48.7441 112.688 48.7441 113.215V120H46.5205V113.206C46.5205 113.024 46.5 112.875 46.459 112.758C46.4238 112.641 46.374 112.547 46.3096 112.477C46.2451 112.412 46.1689 112.368 46.0811 112.345C45.999 112.315 45.9141 112.301 45.8262 112.301C45.7324 112.301 45.6475 112.312 45.5713 112.336C45.501 112.359 45.4336 112.392 45.3691 112.433C45.3164 112.474 45.2695 112.521 45.2285 112.573C45.1875 112.62 45.1523 112.676 45.123 112.74C45.123 112.752 45.123 112.778 45.123 112.819C45.123 112.86 45.123 112.916 45.123 112.986V120H42.9697V113.197C42.9697 113.016 42.9521 112.866 42.917 112.749C42.8818 112.632 42.835 112.541 42.7764 112.477C42.7119 112.412 42.6387 112.368 42.5566 112.345C42.4746 112.315 42.3867 112.301 42.293 112.301C42.1875 112.301 42.0938 112.318 42.0117 112.354C41.9297 112.389 41.8564 112.438 41.792 112.503C41.7451 112.55 41.7041 112.605 41.6689 112.67C41.6338 112.734 41.6016 112.805 41.5723 112.881V120H39.3486V110.49H41.4492ZM55.3535 120.176C54.6211 120.176 53.9561 120.056 53.3584 119.815C52.7607 119.575 52.248 119.247 51.8203 118.831C51.3926 118.421 51.0615 117.938 50.8271 117.381C50.5986 116.818 50.4844 116.218 50.4844 115.579V115.228C50.4844 114.501 50.5986 113.839 50.8271 113.241C51.0557 112.638 51.375 112.119 51.7852 111.686C52.1953 111.252 52.6816 110.915 53.2441 110.675C53.8066 110.435 54.4189 110.314 55.0811 110.314C55.7666 110.314 56.376 110.429 56.9092 110.657C57.4482 110.88 57.9053 111.196 58.2803 111.606C58.6494 112.017 58.9307 112.512 59.124 113.092C59.3174 113.666 59.4141 114.302 59.4141 114.999V116.036H52.9629V116.062C53.0449 116.443 53.1504 116.751 53.2793 116.985C53.4082 117.214 53.5811 117.422 53.7979 117.609C54.0205 117.803 54.2754 117.952 54.5625 118.058C54.8496 118.163 55.1631 118.216 55.5029 118.216C55.9834 118.216 56.4492 118.125 56.9004 117.943C57.3516 117.762 57.7178 117.489 57.999 117.126L59.2207 118.444C58.9102 118.884 58.418 119.282 57.7441 119.64C57.0703 119.997 56.2734 120.176 55.3535 120.176ZM55.0635 112.292C54.7881 112.292 54.5361 112.342 54.3076 112.441C54.0791 112.535 53.8799 112.673 53.71 112.854C53.5342 113.036 53.3877 113.253 53.2705 113.505C53.1533 113.757 53.0654 114.038 53.0068 114.349H57.0146V114.155C57.0146 113.897 56.9678 113.654 56.874 113.426C56.7803 113.197 56.6514 112.998 56.4873 112.828C56.3232 112.664 56.1211 112.535 55.8809 112.441C55.6465 112.342 55.374 112.292 55.0635 112.292Z" fill="#02F4BF"/>
</svg>
